<svg xmlns="http://www.w3.org/2000/svg" width="256" height="256" viewBox="0 0 100 100"><rect width="100" height="100" rx="20" fill="#808080"></rect><path d="M22.44 44.14L22.44 44.14L22.44 51.88Q22.44 55.68 20.61 57.33Q18.77 58.98 14.43 58.98L14.43 58.98Q10.30 58.98 8.36 57.21Q6.42 55.45 6.42 51.88L6.42 51.88L6.42 44.14Q6.42 42.76 7.24 41.89Q8.06 41.02 9.31 41.02L9.31 41.02Q10.84 41.02 11.64 41.59Q12.43 42.16 12.43 43.90L12.43 43.90L12.43 52.38Q12.46 53.21 12.70 53.70Q12.95 54.20 13.37 54.39Q13.78 54.59 14.43 54.59Q15.08 54.59 15.50 54.43Q15.91 54.28 16.11 53.94Q16.30 53.60 16.37 53.26Q16.43 52.92 16.43 52.38L16.43 52.38L16.43 43.88Q16.43 42.99 16.65 42.39Q16.88 41.80 17.33 41.51Q17.79 41.22 18.27 41.12Q18.75 41.02 19.42 41.02L19.42 41.02Q20.93 41.02 21.69 41.74Q22.44 42.47 22.44 44.14ZM37.83 50.27L37.83 50.27Q39.16 50.43 40.25 51.61Q41.34 52.79 41.34 54.64L41.34 54.64Q41.34 56.43 41.08 57.31Q40.82 58.18 40.20 58.50Q39.57 58.83 38.30 58.83L38.30 58.83Q37.29 58.83 36.62 58.54Q35.96 58.25 35.65 57.70Q35.34 57.14 35.34 56.25L35.34 56.25Q35.34 55.11 35.24 54.34Q35.15 53.57 35.01 53.12Q34.87 52.66 34.58 52.43Q34.30 52.20 34.02 52.13Q33.75 52.07 33.28 52.07L33.28 52.07L31.90 52.07L31.90 54.95Q31.90 57.03 31.10 57.93Q30.29 58.83 28.73 58.83L28.73 58.83Q27.22 58.83 26.51 57.98Q25.79 57.14 25.79 55.13L25.79 55.13L25.79 44.29Q25.79 42.66 26.40 41.84Q27.02 41.02 28.39 41.02L28.39 41.02Q29.20 41.02 29.73 41.12Q30.27 41.22 30.77 41.50Q31.28 41.77 31.53 42.36Q31.77 42.94 31.77 43.85L31.77 43.85Q31.77 44.66 31.76 45.66Q31.75 46.66 31.75 47.07L31.75 47.07Q31.75 47.41 31.92 47.65Q32.09 47.88 32.44 48.02Q32.79 48.17 33.31 48.17L33.31 48.17Q34.43 48.17 34.80 47.28Q35.18 46.40 35.18 43.67L35.18 43.67Q35.18 42.32 35.91 41.67Q36.64 41.02 38.25 41.02L38.25 41.02Q39.99 41.02 40.59 41.69Q41.19 42.37 41.19 44.11L41.19 44.11Q41.19 46.97 40.19 48.54Q39.18 50.12 37.83 50.27ZM51.09 47.10L51.09 47.10Q51.09 45.83 48.73 45.83L48.73 45.83Q48.23 45.83 47.39 45.92Q46.54 46.01 46.15 46.01L46.15 46.01Q44.28 46.01 44.28 43.77L44.28 43.77Q44.28 41.46 49.69 41.46L49.69 41.46Q53.20 41.46 54.94 42.60Q56.68 43.75 56.68 45.59L56.68 45.59Q56.68 48.17 54.45 49.70L54.45 49.70Q55.95 50.51 56.56 51.38Q57.18 52.25 57.18 53.89L57.18 53.89Q57.18 56.15 55.39 57.57Q53.61 58.98 50.62 58.98L50.62 58.98Q46.88 58.98 45.25 58.22Q43.63 57.45 43.63 55.89L43.63 55.89Q43.63 54.59 44.15 54.11Q44.67 53.63 45.61 53.63L45.61 53.63Q46.07 53.63 47.06 53.73Q48.05 53.83 48.57 53.83L48.57 53.83Q51.40 53.83 51.40 52.79L51.40 52.79Q51.40 52.09 50.86 51.82Q50.31 51.55 48.80 51.55L48.80 51.55Q47.30 51.55 46.67 51.16Q46.05 50.77 46.05 49.70L46.05 49.70Q46.05 48.09 48.18 48.09L48.18 48.09Q49.56 48.09 50.22 47.96Q50.88 47.83 50.99 47.66Q51.09 47.49 51.09 47.10ZM67.32 44.34L67.34 54.90Q67.34 57.01 66.59 57.90Q65.83 58.80 64.30 58.80L64.30 58.80Q63.29 58.80 62.66 58.49Q62.04 58.18 61.71 57.34Q61.39 56.51 61.36 55.11L61.36 55.11L61.31 45.41Q60.06 45.41 59.26 44.96Q58.45 44.50 58.45 43.43L58.45 43.43Q58.45 42.58 59.19 42.02Q59.93 41.46 61.26 41.46L61.26 41.46Q61.78 41.46 62.73 41.47Q63.68 41.48 64.07 41.48L64.07 41.48Q65.99 41.48 66.65 42.12Q67.32 42.76 67.32 44.34L67.32 44.34ZM76.88 58.98L76.88 58.98Q74.88 58.98 73.28 58.41Q71.68 57.84 70.71 56.68Q69.73 55.52 69.73 53.96L69.73 53.96Q69.73 51.16 72.36 49.75L72.36 49.75Q70.59 48.45 70.59 46.29L70.59 46.29Q70.59 44.03 72.36 42.72Q74.13 41.41 76.91 41.41Q79.69 41.41 81.45 42.72Q83.20 44.03 83.20 46.29L83.20 46.29Q83.20 48.45 81.43 49.75L81.43 49.75Q84.01 51.18 84.01 53.96L84.01 53.96Q84.01 56.30 81.99 57.64Q79.98 58.98 76.88 58.98ZM78.21 53.91L78.21 53.91Q78.21 52.90 77.87 52.13Q77.53 51.36 76.91 51.36L76.91 51.36Q76.26 51.36 75.90 52.14Q75.53 52.92 75.53 53.91L75.53 53.91Q75.53 54.54 75.68 55.10Q75.82 55.66 76.14 56.03Q76.47 56.41 76.91 56.41L76.91 56.41Q77.56 56.41 77.89 55.67Q78.21 54.93 78.21 53.91ZM78.16 46.06L78.16 46.06Q78.16 45.25 77.83 44.64Q77.51 44.03 76.94 44.03L76.94 44.03Q76.52 44.03 76.22 44.37Q75.92 44.71 75.78 45.20Q75.64 45.70 75.64 46.24L75.64 46.24Q75.64 47.13 75.97 47.78Q76.31 48.43 76.92 48.43Q77.53 48.43 77.85 47.72Q78.16 47.02 78.16 46.06ZM93.55 44.34L93.58 54.90Q93.58 57.01 92.82 57.90Q92.07 58.80 90.53 58.80L90.53 58.80Q89.52 58.80 88.90 58.49Q88.27 58.18 87.95 57.34Q87.62 56.51 87.60 55.11L87.60 55.11L87.54 45.41Q86.30 45.41 85.49 44.96Q84.68 44.50 84.68 43.43L84.68 43.43Q84.68 42.58 85.43 42.02Q86.17 41.46 87.49 41.46L87.49 41.46Q88.01 41.46 88.96 41.47Q89.91 41.48 90.30 41.48L90.30 41.48Q92.22 41.48 92.89 42.12Q93.55 42.76 93.55 44.34L93.55 44.34Z" fill="#fff"></path></svg>